<svg width="36" height="19" viewBox="0 0 36 19" fill="none" xmlns="http://www.w3.org/2000/svg">
<path d="M35.7312 8.78871C35.4099 8.43025 27.6808 0 18 0C8.31926 0 0.590238 8.43025 0.26884 8.78871C-0.0896132 9.18935 -0.0896132 9.79502 0.26884 10.1957C0.590238 10.5541 8.31941 18.9844 18 18.9844C27.6806 18.9844 35.4098 10.5541 35.7312 10.1957C36.0896 9.79502 36.0896 9.18935 35.7312 8.78871ZM18 16.875C13.9296 16.875 10.6172 13.5626 10.6172 9.49218C10.6172 5.42172 13.9296 2.10937 18 2.10937C22.0705 2.10937 25.3828 5.42172 25.3828 9.49218C25.3828 13.5626 22.0705 16.875 18 16.875Z" fill="#543A20"/>
<path d="M19.0547 7.38281C19.0547 6.3218 19.5815 5.3884 20.3827 4.8143C19.6637 4.44621 18.8617 4.21875 18.0001 4.21875C15.0924 4.21875 12.7266 6.58455 12.7266 9.49219C12.7266 12.3998 15.0924 14.7656 18.0001 14.7656C20.6033 14.7656 22.758 12.8648 23.1836 10.3811C21.0598 11.0649 19.0547 9.45858 19.0547 7.38281Z" fill="#543A20"/>
</svg>
