<svg width="47" height="51" viewBox="0 0 47 51" fill="none" xmlns="http://www.w3.org/2000/svg">
<g filter="url(#filter0_d)">
<path fill-rule="evenodd" clip-rule="evenodd" d="M38.6667 4.21622H29.61C28.7 1.77081 26.3167 0 23.5 0C20.6833 0 18.3 1.77081 17.39 4.21622H8.33333C5.95 4.21622 4 6.11351 4 8.43243V37.9459C4 40.2649 5.95 42.1622 8.33333 42.1622H38.6667C41.05 42.1622 43 40.2649 43 37.9459V8.43243C43 6.11351 41.05 4.21622 38.6667 4.21622ZM23.5 3.6892C23.9767 3.6892 24.3883 3.90001 24.6917 4.21622C24.9517 4.49028 25.125 4.86974 25.125 5.27028C25.125 6.1346 24.3883 6.85136 23.5 6.85136C22.6117 6.85136 21.875 6.1346 21.875 5.27028C21.875 4.86974 22.0483 4.49028 22.3083 4.21622C22.6117 3.90001 23.0233 3.6892 23.5 3.6892ZM8.33333 37.9459H38.6667V8.43244H8.33333V37.9459ZM23.5 10.5405C19.925 10.5405 17 13.3865 17 16.8649C17 20.3432 19.925 23.1892 23.5 23.1892C27.075 23.1892 30 20.3432 30 16.8649C30 13.3865 27.075 10.5405 23.5 10.5405ZM21.3333 16.8649C21.3333 18.0243 22.3083 18.973 23.5 18.973C24.6917 18.973 25.6667 18.0243 25.6667 16.8649C25.6667 15.7054 24.6917 14.7568 23.5 14.7568C22.3083 14.7568 21.3333 15.7054 21.3333 16.8649ZM10.5 32.6124V35.8379H36.5V32.6124C36.5 27.3422 27.8983 25.0654 23.5 25.0654C19.1017 25.0654 10.5 27.3211 10.5 32.6124ZM23.5 29.2605C20.6617 29.2605 17 30.4411 15.505 31.6216H31.495C30.0217 30.4411 26.3383 29.2605 23.5 29.2605Z" fill="white"/>
</g>
<defs>
<filter id="filter0_d" x="0" y="0" width="47" height="50.1622" filterUnits="userSpaceOnUse" color-interpolation-filters="sRGB">
<feFlood flood-opacity="0" result="BackgroundImageFix"/>
<feColorMatrix in="SourceAlpha" type="matrix" values="0 0 0 0 0 0 0 0 0 0 0 0 0 0 0 0 0 0 127 0"/>
<feOffset dy="4"/>
<feGaussianBlur stdDeviation="2"/>
<feColorMatrix type="matrix" values="0 0 0 0 1 0 0 0 0 1 0 0 0 0 1 0 0 0 0.5 0"/>
<feBlend mode="normal" in2="BackgroundImageFix" result="effect1_dropShadow"/>
<feBlend mode="normal" in="SourceGraphic" in2="effect1_dropShadow" result="shape"/>
</filter>
</defs>
</svg>
