<svg width="220" height="220" viewBox="0 0 220 220" fill="none" xmlns="http://www.w3.org/2000/svg">
<g clip-path="url(#clip0)">
<path d="M177.211 97.2282C176.779 97.2282 176.354 97.2385 175.933 97.2595C159.397 97.9273 146.201 111.544 146.201 128.237C146.201 142.722 156.136 154.892 169.569 158.295C172.009 158.916 174.57 159.247 177.211 159.247C194.336 159.247 208.221 145.362 208.221 128.237C208.221 111.112 194.335 97.2282 177.211 97.2282ZM177.211 144.784C176.29 144.784 175.386 144.711 174.507 144.563C166.655 143.275 160.664 136.459 160.664 128.238C160.664 119.529 167.391 112.391 175.932 111.74C176.353 111.708 176.779 111.692 177.21 111.692C186.351 111.692 193.756 119.098 193.756 128.238C193.757 137.379 186.352 144.784 177.211 144.784Z" fill="#FEE6CC"/>
<path d="M160.664 128.238C160.664 136.458 166.655 143.275 174.507 144.563C173.429 149.391 171.756 153.999 169.569 158.295C156.136 154.893 146.201 142.722 146.201 128.238C146.201 111.545 159.397 97.9277 175.933 97.26V111.739C167.391 112.391 160.664 119.529 160.664 128.238Z" fill="#FCCE99"/>
<path d="M167.928 92.707V130.992C167.928 163.498 141.89 190.363 109.384 190.593C102.494 190.641 95.8738 189.507 89.7142 187.381C69.7229 180.485 54.6022 163.145 50.8785 141.881C50.2946 138.552 49.9895 135.128 49.9895 131.631V92.7074C49.9895 90.3566 51.8952 88.4505 54.2464 88.4505H163.67C166.022 88.4505 167.928 90.3561 167.928 92.707Z" fill="#FEE6CC"/>
<path d="M92.1235 183.651C91.445 184.95 90.635 186.197 89.7146 187.38C69.7234 180.485 54.6026 163.144 50.879 141.881C52.336 142.412 53.7244 143.112 55.0074 143.969C58.163 146.078 60.5981 149.076 62.1656 152.652C64.0854 152.352 66.0104 152.194 67.914 152.194C81.2781 152.194 92.0865 159.61 94.1954 170.224C95.0896 174.7 94.369 179.344 92.1235 183.651Z" fill="#FCCE99"/>
<path d="M167.928 119.476V131.63C167.928 164.197 141.525 190.594 108.959 190.594C76.3921 190.594 49.9899 164.197 49.9899 131.63V119.476C49.9899 152.042 76.3926 178.444 108.959 178.444C141.525 178.444 167.928 152.042 167.928 119.476Z" fill="#FCCE99"/>
<path d="M156.122 201.266H61.793V216.778H156.122V201.266Z" fill="#FCCE99"/>
<path d="M85.1282 180.002C82.3562 185.308 76.0927 189.753 68.2242 191.314C56.4692 193.65 45.5771 188.685 43.894 180.217C43.8781 180.143 43.8678 180.075 43.857 180.001C42.3475 171.607 50.4785 162.976 62.1282 160.662C73.8832 158.327 84.7754 163.292 86.4585 171.76C87.0162 174.558 86.4958 177.382 85.1282 180.002Z" fill="#E2780E"/>
<path d="M85.1281 180.002C82.3562 185.308 76.0926 189.753 68.2242 191.315C56.4692 193.65 45.577 188.685 43.8939 180.217C43.878 180.143 43.8677 180.075 43.857 180.001H85.1281V180.002V180.002Z" fill="#A85000"/>
<path d="M68.2225 191.314C56.4714 193.649 45.5796 188.683 43.897 180.218C43.6714 179.083 43.6211 177.94 43.7401 176.812C47.2013 183.272 56.7352 186.723 66.908 184.701C77.0805 182.679 84.57 175.844 85.2974 168.551C85.8388 169.548 86.2294 170.623 86.455 171.758C88.1377 180.222 79.9736 188.977 68.2225 191.314Z" fill="#A85000"/>
<path d="M51.557 177.246C50.9048 178.218 50.2108 179.139 49.4795 180.002C42.742 187.944 32.9807 190.931 26.5114 186.602C24.1867 185.05 22.572 182.747 21.6726 180.002C19.8056 174.274 21.0732 166.622 25.5751 159.884C32.2335 149.917 43.4467 145.731 50.6207 150.528C57.7948 155.319 58.2155 167.284 51.557 177.246Z" fill="#E2780E"/>
<path d="M49.4795 180.002C42.7419 187.944 32.9807 190.931 26.5113 186.602C24.1867 185.05 22.5719 182.747 21.6726 180.002H49.4795Z" fill="#A85000"/>
<path d="M51.557 177.248C44.8994 187.209 33.6858 191.398 26.5105 186.602C25.5484 185.96 24.7049 185.187 23.9908 184.305C31.0063 186.425 40.1879 182.124 45.9513 173.501C51.7147 164.878 52.1771 154.75 47.5347 149.079C48.6227 149.401 49.6591 149.885 50.6212 150.528C57.7969 155.323 58.2146 167.287 51.557 177.248Z" fill="#A85000"/>
<path d="M11.7799 187.368V195.073L61.6238 204.54H156.294L206.138 195.073V187.368H11.7799Z" fill="#FEE6CC"/>
<path d="M206.139 184.143H175.021C173.24 184.143 171.798 185.586 171.798 187.366C171.798 189.146 173.24 190.589 175.021 190.589H202.916V192.407L155.991 201.318H61.9293L15.0047 192.407V190.589H27.818C27.8232 190.589 27.8283 190.59 27.8331 190.59C27.8369 190.59 27.8412 190.589 27.8451 190.589H39.4561C39.46 190.589 39.4634 190.59 39.4673 190.59C39.4733 190.59 39.4798 190.589 39.4858 190.589H78.1221C78.1242 190.589 78.1264 190.589 78.1289 190.589C78.1311 190.589 78.1328 190.589 78.135 190.589H89.6485C89.6519 190.589 89.6553 190.59 89.6588 190.59C89.6622 190.59 89.6661 190.589 89.6695 190.589H128.251C128.255 190.589 128.259 190.59 128.262 190.59C128.265 190.59 128.269 190.589 128.272 190.589H163.053C164.834 190.589 166.276 189.146 166.276 187.366C166.276 185.586 164.834 184.143 163.053 184.143H142.267C146.116 181.698 149.707 178.833 152.936 175.606C157.597 170.943 161.424 165.669 164.348 159.967C168.423 161.627 172.738 162.47 177.212 162.47C196.086 162.47 211.441 147.113 211.441 128.237C211.441 109.363 196.086 94.0077 177.212 94.0077C175.166 94.0077 173.14 94.1929 171.149 94.5499V92.7061C171.149 88.5811 167.793 85.2253 163.668 85.2253H148.427C146.647 85.2253 145.204 86.6682 145.204 88.4479C145.204 90.2277 146.647 91.6706 148.427 91.6706H163.668C164.239 91.6706 164.703 92.1351 164.703 92.7061V98.1847H53.2122V92.7061C53.2122 92.1351 53.6767 91.6706 54.2477 91.6706H136.456C138.236 91.6706 139.678 90.2277 139.678 88.4479C139.678 86.6682 138.236 85.2253 136.456 85.2253H54.2477C50.1227 85.2253 46.7668 88.5811 46.7668 92.7061V131.627C46.7668 136.488 47.3353 141.307 48.4431 145.987C43.1979 144.423 36.9476 145.652 31.2448 149.554C29.7757 150.559 29.3993 152.565 30.4043 154.034C31.4098 155.503 33.4156 155.878 34.8842 154.874C38.6217 152.317 42.5439 151.313 45.7872 151.963L34.0489 169.525C33.0598 171.005 33.4577 173.006 34.9371 173.995C35.4871 174.363 36.1097 174.539 36.725 174.539C37.7653 174.539 38.7862 174.036 39.4071 173.107L51.1488 155.539C52.3665 157.346 53.0339 159.712 53.0652 162.469C53.0652 162.47 53.0652 162.471 53.0652 162.472C53.0652 162.478 53.0656 162.484 53.0656 162.49C53.109 166.747 51.6215 171.352 48.8779 175.457C47.3138 177.797 45.4645 179.804 43.3702 181.43C41.9182 182.567 40.3928 183.477 38.8301 184.143H28.6495C28.533 184.074 28.417 184.004 28.3014 183.926C22.9359 180.342 22.5964 171.074 27.5284 162.826C28.4419 161.299 27.9443 159.319 26.4168 158.406C24.8901 157.493 22.9105 157.99 21.997 159.518C18.853 164.775 17.3173 170.633 17.6731 176.012C17.875 179.064 18.6738 181.814 19.9887 184.143H11.782C10.0019 184.143 8.55939 185.586 8.55939 187.366V195.074C8.55939 196.622 9.66025 197.951 11.1809 198.24L58.5712 207.24V216.777C58.5712 218.557 60.0137 220 61.7939 220H156.123C157.903 220 159.345 218.557 159.345 216.777V207.241L206.74 198.24C208.26 197.951 209.361 196.622 209.361 195.074V187.366C209.361 185.586 207.918 184.143 206.139 184.143ZM171.149 116.379C173.016 115.421 175.081 114.912 177.212 114.912C184.559 114.912 190.536 120.889 190.536 128.237C190.536 135.584 184.559 141.561 177.212 141.561C174.87 141.561 172.617 140.953 170.615 139.807C170.966 137.116 171.148 134.385 171.148 131.626V116.379H171.149V116.379ZM177.212 100.453C192.532 100.453 204.996 112.917 204.996 128.237C204.996 143.559 192.532 156.025 177.212 156.025C173.659 156.025 170.234 155.362 166.993 154.075C167.958 151.576 168.757 149.012 169.391 146.397C171.841 147.455 174.488 148.007 177.212 148.007C188.113 148.007 196.982 139.138 196.982 128.237C196.982 117.336 188.113 108.467 177.212 108.467C175.132 108.467 173.092 108.792 171.149 109.418V101.44C171.149 101.429 171.15 101.418 171.15 101.407C171.15 101.396 171.149 101.385 171.149 101.374V101.121C173.127 100.679 175.158 100.453 177.212 100.453ZM164.703 104.63V114.55C164.703 114.553 164.703 114.557 164.703 114.561V131.627C164.703 146.517 158.906 160.518 148.379 171.049C142.547 176.877 135.404 181.394 127.697 184.143H90.2277C89.1883 183.773 88.154 183.376 87.1326 182.94C89.4972 179.223 90.3983 175.086 89.6201 171.144C89.6192 171.139 89.6188 171.135 89.6179 171.129C89.6167 171.123 89.6145 171.117 89.6136 171.111C88.5863 165.983 84.9627 161.763 79.4077 159.229C74.2042 156.855 67.8443 156.241 61.4991 157.501C60.9221 157.615 60.3502 157.746 59.783 157.89C55.4814 149.849 53.2122 140.824 53.2122 131.627V104.63H164.703V104.63V104.63ZM54.2374 179.038C57.2207 174.574 59.0211 169.569 59.4233 164.718C60.5044 164.354 61.6164 164.049 62.7555 163.822C70.9553 162.194 78.8616 164.661 82.0142 169.355L61.3032 173.472C59.5574 173.819 58.4234 175.515 58.7702 177.261C59.0753 178.795 60.4215 179.856 61.928 179.856C62.1359 179.856 62.3478 179.836 62.5596 179.793L83.2835 175.673C82.8701 177.793 81.6885 179.919 79.7957 181.871C79.7905 181.876 79.7858 181.882 79.7811 181.887C78.9918 182.697 78.0993 183.451 77.1273 184.143H50.0308C51.5755 182.619 52.9844 180.913 54.2374 179.038ZM152.9 213.556H65.0161V207.763H152.9V213.556Z" fill="black"/>
<path d="M117.389 64.4047C115.882 65.3526 115.429 67.342 116.377 68.8485C116.99 69.8222 118.037 70.3554 119.107 70.3554C119.694 70.3554 120.288 70.1952 120.821 69.86C127.297 65.7853 131.163 58.7925 131.163 51.1552C131.163 45.0189 128.663 39.3027 124.324 35.1777C128.664 31.0527 131.163 25.3366 131.163 19.2006C131.163 11.5629 127.297 4.57058 120.821 0.495411C119.315 -0.452481 117.324 0.000410409 116.377 1.5069C115.429 3.01339 115.882 5.00284 117.388 5.95073C121.978 8.83867 124.718 13.7917 124.718 19.2002C124.718 24.6087 121.978 29.5617 117.388 32.4496C115.418 33.6854 115.418 36.6649 117.388 37.9049C121.978 40.7929 124.718 45.7459 124.718 51.1544C124.719 56.5633 121.979 61.5167 117.389 64.4047C121.979 61.5167 115.882 65.3526 117.389 64.4047Z" fill="black"/>
<path d="M140.069 64.4047C138.562 65.3526 138.109 67.342 139.057 68.8485C139.669 69.8222 140.716 70.3554 141.787 70.3554C142.374 70.3554 142.968 70.1952 143.5 69.86C149.976 65.7853 153.843 58.7925 153.843 51.1553C153.843 43.518 149.976 36.5252 143.5 32.4505C141.994 31.5026 140.004 31.9551 139.057 33.462C138.109 34.968 138.562 36.9579 140.068 37.9058C144.658 40.7938 147.398 45.7472 147.398 51.1557C147.398 56.5633 144.658 61.5168 140.069 64.4047Z" fill="black"/>
<path d="M92.8522 64.4047C91.3457 65.3526 90.8928 67.3421 91.8407 68.8485C92.453 69.8222 93.5002 70.3555 94.571 70.3555C95.1575 70.3555 95.7513 70.1952 96.2841 69.86C102.76 65.7853 106.627 58.7926 106.627 51.1553C106.627 43.5176 102.76 36.5252 96.2841 32.4501C94.7781 31.5022 92.7873 31.9551 91.8403 33.4616C90.8924 34.9681 91.3453 36.9575 92.8518 37.9054C97.4417 40.7933 100.182 45.7464 100.182 51.1548C100.182 56.5633 97.4421 61.5168 92.8522 64.4047Z" fill="black"/>
</g>
<defs>
<clipPath id="clip0">
<rect width="220" height="220" fill="white"/>
</clipPath>
</defs>
</svg>
