<svg width="260" height="155" viewBox="0 0 260 155" fill="none" xmlns="http://www.w3.org/2000/svg">
<g clip-path="url(#clip0)">
<path d="M199.062 153.247C195.733 150.443 193.712 146.012 194.242 141.699C194.772 137.386 198.056 133.42 202.316 132.504C206.576 131.588 211.432 134.124 212.726 138.273C213.438 130.273 214.259 121.938 218.525 115.125C222.387 108.956 229.077 104.542 236.327 103.752C243.577 102.963 251.21 105.945 255.732 111.651C260.254 117.357 261.361 125.653 258.194 132.204C255.861 137.03 251.563 140.621 247.06 143.543C232.508 152.905 215.055 156.713 197.913 154.264L199.062 153.247Z" fill="#F2F2F2"/>
<path d="M248.562 106.111C242.58 110.969 237.092 116.403 232.178 122.334C224.486 131.584 218.262 141.955 213.723 153.086C213.391 153.898 214.713 154.251 215.041 153.448C222.469 135.359 234.326 119.415 249.529 107.075C250.212 106.52 249.239 105.561 248.562 106.111Z" fill="white"/>
<path d="M83.6982 152.485C88.2702 148.633 91.0472 142.548 90.319 136.623C89.5907 130.699 85.0799 125.253 79.2287 123.995C73.3776 122.737 66.7076 126.219 64.9305 131.919C63.9524 120.931 62.8253 109.482 56.9666 100.124C51.6616 91.6514 42.4733 85.5887 32.5153 84.5041C22.5573 83.4195 12.0727 87.5159 5.86227 95.3533C-0.34819 103.191 -1.86879 114.584 2.48085 123.582C5.68508 130.211 11.5884 135.144 17.7736 139.157C37.5066 151.96 61.9853 157.3 85.2772 153.882" fill="#F2F2F2"/>
<path d="M15.7096 87.743C23.9262 94.4164 31.4641 101.88 38.2142 110.026C44.9654 118.164 50.909 126.935 55.9618 136.217C58.786 141.424 61.3231 146.781 63.5616 152.263C64.0181 153.379 62.2019 153.864 61.7505 152.761C57.7854 143.096 52.8798 133.841 47.1041 125.129C41.3565 116.449 34.778 108.345 27.4611 100.932C23.3226 96.7411 18.9561 92.7802 14.3815 89.0673C13.4438 88.306 14.7797 86.9879 15.7096 87.743L15.7096 87.743Z" fill="white"/>
<path d="M186.632 154.661H77.5517V43.0606C77.5517 19.3169 96.9239 0 120.736 0H143.448C167.26 0 186.632 19.3169 186.632 43.0606V154.661Z" fill="#F2F2F2"/>
<path d="M163.92 154.661H77.5517V43.0606C77.5279 33.9626 80.4171 25.0944 85.7987 17.7474C85.9971 17.4778 86.1949 17.2117 86.399 16.9485C89.0021 13.5442 92.0998 10.546 95.5899 8.05306C95.787 7.91002 95.985 7.76947 96.1859 7.62891C99.1063 5.61368 102.265 3.96627 105.591 2.72417C105.789 2.64953 105.99 2.57473 106.191 2.503C109.199 1.43261 112.317 0.699403 115.488 0.316909C115.684 0.290134 115.886 0.269182 116.088 0.24823C119.178 -0.0811972 122.294 -0.0811972 125.384 0.24823C125.585 0.269182 125.787 0.290132 125.986 0.317196C129.156 0.699715 132.273 1.43283 135.28 2.50301C135.481 2.57475 135.682 2.64953 135.88 2.72433C139.165 3.95075 142.287 5.57358 145.177 7.5566C145.377 7.6941 145.578 7.83467 145.776 7.97522C147.733 9.36769 149.57 10.919 151.27 12.6133C152.633 13.9722 153.904 15.4209 155.073 16.9494C155.276 17.2117 155.474 17.4778 155.672 17.747C161.054 25.0941 163.943 33.9624 163.92 43.0606V154.661Z" fill="#CCCCCC"/>
<path d="M156.896 104.746C159.537 104.746 161.678 102.611 161.678 99.9782C161.678 97.3449 159.537 95.2102 156.896 95.2102C154.256 95.2102 152.115 97.3449 152.115 99.9782C152.115 102.611 154.256 104.746 156.896 104.746Z" fill="#CE9760"/>
<path d="M177.696 151.318H174.032L172.289 137.226L177.697 137.227L177.696 151.318Z" fill="#FFB8B8"/>
<path d="M171.415 150.274H178.481V154.71H166.966C166.966 154.128 167.081 153.551 167.305 153.013C167.528 152.474 167.856 151.985 168.269 151.573C168.682 151.162 169.173 150.835 169.713 150.612C170.252 150.389 170.831 150.274 171.415 150.274Z" fill="#2F2E41"/>
<path d="M195.926 151.318H192.262L190.519 137.226L195.927 137.227L195.926 151.318Z" fill="#FFB8B8"/>
<path d="M189.645 150.274H196.711V154.71H185.196C185.196 154.128 185.311 153.551 185.535 153.013C185.758 152.474 186.086 151.985 186.499 151.573C186.912 151.162 187.403 150.835 187.943 150.612C188.482 150.389 189.061 150.274 189.645 150.274Z" fill="#2F2E41"/>
<path d="M159.317 100.923C159.053 100.535 158.878 100.095 158.803 99.6333C158.729 99.1712 158.757 98.6984 158.885 98.2483C159.014 97.7982 159.24 97.3816 159.547 97.028C159.854 96.6744 160.236 96.3923 160.664 96.2015L173.119 61.9715L179.248 65.3065L165.027 98.0179C165.301 98.7572 165.293 99.5708 165.005 100.305C164.717 101.038 164.17 101.642 163.466 102C162.762 102.358 161.951 102.446 161.186 102.247C160.421 102.049 159.756 101.578 159.317 100.923Z" fill="#FFB8B8"/>
<path d="M194.054 107.355C193.647 107.122 193.296 106.803 193.026 106.42C192.756 106.038 192.573 105.6 192.491 105.14C192.408 104.679 192.428 104.206 192.549 103.754C192.67 103.301 192.889 102.881 193.19 102.522L189.332 66.3127L196.306 66.6304L197.91 102.247C198.481 102.792 198.831 103.527 198.895 104.312C198.959 105.097 198.732 105.879 198.257 106.508C197.782 107.138 197.092 107.572 196.317 107.728C195.542 107.884 194.737 107.751 194.054 107.355Z" fill="#FFB8B8"/>
<path d="M182.928 55.6312C186.982 55.6312 190.268 52.3543 190.268 48.3121C190.268 44.2699 186.982 40.993 182.928 40.993C178.874 40.993 175.588 44.2699 175.588 48.3121C175.588 52.3543 178.874 55.6312 182.928 55.6312Z" fill="#FFB8B8"/>
<path d="M194.008 99.1195H171.879L171.905 98.9479C171.945 98.6912 175.849 73.1892 172.97 64.8462C172.681 64.0263 172.706 63.1288 173.041 62.3265C173.376 61.5242 173.997 60.8737 174.784 60.5003H174.784C178.899 58.5677 186.8 56.188 193.468 61.9633C194.449 62.8271 195.215 63.9067 195.706 65.1168C196.197 66.3268 196.398 67.6341 196.295 68.9352L194.008 99.1195Z" fill="#CE9760"/>
<path d="M176.129 76.958L166.166 74.9426L170.836 63.9078C171.116 62.839 171.809 61.9244 172.764 61.3646C173.718 60.8047 174.857 60.6454 175.929 60.9215C177.002 61.1975 177.921 61.8865 178.485 62.8373C179.048 63.788 179.211 64.9229 178.937 65.9931L176.129 76.958Z" fill="#CE9760"/>
<path d="M188.889 80.7001L188.29 67.0097C187.836 64.4361 189.313 62.0033 191.585 61.6056C193.858 61.2094 196.077 62.9943 196.534 65.5868L198.785 78.3792L188.889 80.7001Z" fill="#CE9760"/>
<path d="M193.271 97.4805C196.832 111.003 197.221 128.195 196.26 146.948L191.478 146.352L182.812 110.592L178.03 146.948L172.651 146.65C171.044 126.973 169.479 110.081 172.053 98.9705L193.271 97.4805Z" fill="#2F2E41"/>
<path d="M187.765 53.9685C186.395 55.423 183.852 54.6422 183.674 52.6552C183.66 52.5009 183.661 52.3457 183.677 52.1916C183.769 51.3115 184.279 50.5124 184.157 49.5831C184.129 49.3518 184.043 49.1314 183.906 48.9427C182.814 47.4857 180.253 49.5944 179.223 48.2754C178.592 47.4666 179.334 46.1932 178.849 45.2893C178.21 44.0962 176.316 44.6848 175.128 44.0314C173.806 43.3044 173.885 41.2823 174.755 40.0523C175.816 38.5524 177.676 37.7519 179.514 37.6366C181.351 37.5212 183.175 38.0165 184.891 38.683C186.84 39.4403 188.772 40.4869 189.971 42.1957C191.43 44.2736 191.57 47.0673 190.841 49.4971C190.397 50.9752 188.883 52.7808 187.765 53.9685Z" fill="#2F2E41"/>
<path d="M251.029 154.852H30.3894C30.2952 154.852 30.205 154.815 30.1385 154.748C30.072 154.682 30.0346 154.592 30.0346 154.498C30.0346 154.404 30.072 154.314 30.1385 154.247C30.205 154.181 30.2952 154.143 30.3894 154.143H251.029C251.123 154.143 251.213 154.181 251.28 154.247C251.346 154.314 251.384 154.404 251.384 154.498C251.384 154.592 251.346 154.682 251.28 154.748C251.213 154.815 251.123 154.852 251.029 154.852Z" fill="#3F3D56"/>
<path d="M140.161 122.328H101.31C100.799 122.331 100.307 122.131 99.9427 121.773C99.5785 121.414 99.3718 120.926 99.3678 120.416V33.9465C99.3718 33.4363 99.5785 32.9485 99.9427 32.5901C100.307 32.2317 100.799 32.032 101.31 32.0347H140.161C140.673 32.032 141.164 32.2317 141.529 32.5901C141.893 32.9485 142.099 33.4363 142.103 33.9465V120.416C142.099 120.926 141.893 121.414 141.529 121.773C141.164 122.131 140.673 122.331 140.161 122.328Z" fill="white"/>
<path d="M142.103 60.0136H99.3678V60.6096H142.103V60.0136Z" fill="#CCCCCC"/>
<path d="M142.253 94.0182H99.5172V94.6142H142.253V94.0182Z" fill="#CCCCCC"/>
<path d="M113.414 32.0347H112.816V122.626H113.414V32.0347Z" fill="#CCCCCC"/>
<path d="M128.356 32.0347H127.759V122.626H128.356V32.0347Z" fill="#CCCCCC"/>
</g>
<defs>
<clipPath id="clip0">
<rect width="260" height="155" fill="white"/>
</clipPath>
</defs>
</svg>
